<svg xmlns="http://www.w3.org/2000/svg" xmlns:xlink="http://www.w3.org/1999/xlink" id="Layer_1" x="0px" y="0px" viewBox="0 0 452 452" style="enable-background:new 0 0 452 452;" xml:space="preserve"><style type="text/css">	.st0{fill:#0061A6;}</style><g>	<path class="st0" d="M220.5,200.5c8-5.9,15.9-6,24,0c7.8-5.8,15.8-6,23.3-0.5c3.9-1.4,7.4-3.3,11.1-3.7  c10.6-1.3,19.5,7.2,19.5,18.3c0.1,21.3,0,42.7,0,64c0,1.3,0,2.7,0,5.1c5.1-5.5,9.6-10.3,14.1-15c4.6-4.8,10.2-7.2,16.8-6.2  c7.7,1.1,13,5.4,15.7,12.8c2.9,8,1.4,15.3-4.2,21.6c-8,8.9-16.3,17.6-24.4,26.3c-5.3,5.7-10.6,11.2-15.8,17c-1.2,1.3-2,3.4-2,5.2  c-0.2,7.7-0.1,15.5-0.1,23.2c0,5.1-2.2,7.3-7.3,7.3c-31.1,0-62.1,0-93.2,0c-5.2,0-7.4-2.1-7.4-7.2c0-51.4,0-102.8,0-154.1  c0-7.2,3.2-12.7,9.6-16.2c6.4-3.4,12.7-2.8,18.7,1.2C219.4,199.7,219.9,200.1,220.5,200.5z M202.5,363.5c28.2,0,55.9,0,83.9,0  c0-7.4,0.1-14.5,0-21.6c-0.1-3.1,0.9-5.4,3-7.7c13.8-14.6,27.4-29.4,41.1-44.1c0.8-0.8,1.6-1.6,2.2-2.6c2.7-4,1.9-9.4-1.6-12.1  c-3.3-2.5-6.8-1.9-10.5,2c-7.4,7.9-14.9,15.8-22.2,23.8c-2.3,2.5-4.7,4.4-8.1,3c-3.5-1.4-3.8-4.4-3.8-7.8c0.1-26.6,0-53.2,0-79.7  c0-1.2,0.1-2.5-0.1-3.7c-0.7-3.2-2.7-5.1-6-5c-3.1,0.1-5,2-5.7,5c-0.3,1.2-0.1,2.5-0.1,3.7c0,20.6,0,41.2,0,61.8  c0,4.8-2.1,7.3-6,7.3c-3.9,0-6-2.5-6-7.3c0-20.6,0-41.2,0-61.8c0-1.2,0.1-2.5-0.1-3.7c-0.7-3.2-2.7-5.1-6-5c-3.1,0.1-5,2-5.7,5  c-0.3,1.2-0.1,2.5-0.1,3.7c0,20.6,0,41.2,0,61.8c0,4.8-2.1,7.3-6,7.3c-3.9,0-6-2.5-6-7.3c0-20.5,0-40.9,0-61.4c0-6.2-1.8-9-5.8-9.1  c-4.1-0.1-6.2,2.9-6.2,9.2c0,20.6,0,41.2,0,61.8c0,4.7-2.7,7.3-6.8,6.9c-3.3-0.4-5.2-2.8-5.2-6.9c0-21.2,0-42.4,0-63.6  c0-4.5-2.2-7.1-5.8-7.2c-3.7-0.1-6.1,2.7-6.1,7.3c0,0.6,0,1.2,0,1.9c0,47.3,0,94.6,0,141.9C202.5,360.5,202.5,361.8,202.5,363.5z"></path>	<path class="st0" d="M319.5,208.5c-27.3-27.3-54.2-54.2-80.8-80.8c-38.7,38.7-77.7,77.7-116.8,116.8c0.5,0.6,1.4,1.6,2.4,2.5  c18.8,18.8,37.6,37.6,56.4,56.4c0.7,0.7,1.5,1.4,2.1,2.1c2.4,2.8,2.5,6,0.2,8.4c-2.4,2.5-5.9,2.6-8.7,0c-4.6-4.4-9.1-8.9-13.5-13.5  c-1.8-1.9-3.6-2.6-6.2-2.6c-13,0.1-25.9,0.1-38.9,0.1c-0.9,0-1.7,0-2.6,0c-3.8-0.2-6.3-2.6-6.3-6c0-3.4,2.5-5.9,6.4-5.9  c9.5-0.1,19,0,28.4,0c1.2,0,2.4,0,4.7,0c-4.3-4.2-7.8-7.9-11.5-11.3c-0.8-0.7-2.3-0.7-3.5-0.7c-13.7,0-27.4,0.1-41.2-0.1  c-2,0-4.6-1-5.8-2.4c-1.1-1.3-1.2-4-0.8-5.8c0.7-2.7,3.1-3.7,5.9-3.7c9.2,0,18.5,0,27.7,0c1.4,0,2.7,0,5.2,0  c-3.7-3.7-6.8-6.8-9.9-9.9c-7.7-7.7-7.7-8.5,0-16.1c20.1-20.1,40.2-40.2,60.3-60.3c0.9-0.9,1.8-1.9,3.3-3.5c-1.9,0-3.1,0-4.3,0  c-13.1,0-26.2,0-39.3,0c-4.8,0-7.5-2.1-7.6-5.8c-0.1-3.8,2.7-6.1,7.7-6.1c17.5,0,34.9,0.1,52.4-0.1c1.8,0,4-1,5.5-2.2  c3.3-2.7,6.2-5.8,9.8-9.3c-1.7-0.2-2.6-0.4-3.5-0.4c-7.6,0-15.2,0-22.8,0c-4.4,0-7.1-2.3-7.1-6c0-3.6,2.7-6,7.1-6  c11.4,0,22.7-0.1,34.1,0.1c3.2,0.1,5.3-0.9,7.4-3.2c5.9-6.1,11.9-12.1,18-18c3.9-3.8,6.7-3.9,10.6-0.1  c29.3,29.3,58.6,58.5,87.9,87.9c3.7,3.7,3.7,6.6,0.1,10.3c-5.3,5.4-10.7,10.8-16.1,16.1c-3.2,3.2-6.6,3.4-9.2,0.9  c-2.8-2.7-2.5-6.1,0.9-9.5C311.3,216.6,315.5,212.5,319.5,208.5z"></path>	<path class="st0" d="M190.6,73.4c0,0.7,0,1.5,0,2.2c-0.2,4-2.6,6.7-6.1,6.6c-3.4-0.1-5.7-2.6-5.8-6.5c-0.1-1.6-0.1-3.2,0-4.9  c0.1-4,2.6-6.7,6.1-6.6c3.4,0.1,5.7,2.6,5.9,6.5C190.6,71.6,190.6,72.5,190.6,73.4z"></path>	<path class="st0" d="M169.4,94.2c-1.1,0-2.3,0.1-3.4,0c-3.2-0.4-5.6-3-5.4-6.1c0.2-3.3,2.1-5.3,5.4-5.7c2-0.2,4-0.1,6-0.1  c3.9,0.1,6.4,2.4,6.5,5.8c0.1,3.5-2.5,6-6.5,6.2C171.1,94.3,170.3,94.2,169.4,94.2C169.4,94.2,169.4,94.2,169.4,94.2z"></path>	<path class="st0" d="M199.2,94.2c-1,0-2,0.1-3,0c-3.3-0.3-5.6-2.7-5.7-5.9c0-3.1,2.2-5.7,5.5-6c2.2-0.2,4.5-0.2,6.7,0  c3.3,0.2,5.6,2.7,5.7,5.8c0,3.1-2.2,5.6-5.5,6C201.7,94.3,200.5,94.2,199.2,94.2z"></path>	<path class="st0" d="M190.6,103.4c0,0.7,0,1.5,0,2.2c-0.2,4-2.7,6.6-6.2,6.5c-3.4-0.1-5.7-2.6-5.8-6.5c-0.1-1.6-0.1-3.2,0-4.9  c0.1-4,2.6-6.6,6.1-6.5c3.4,0.1,5.6,2.6,5.8,6.5C190.6,101.6,190.6,102.5,190.6,103.4z"></path>	<path class="st0" d="M334.3,109c0,6.4-1.9,9.3-6.1,9.2c-4-0.1-5.9-2.9-5.9-9.1c0-0.5,0-1,0-1.5c0.1-4.7,2.4-7.4,6.1-7.3  c3.6,0.1,5.8,2.8,5.9,7.2C334.3,108,334.3,108.5,334.3,109z"></path>	<path class="st0" d="M313.2,130.2c-0.7,0-1.5,0-2.2,0c-4-0.2-6.7-2.6-6.6-6.1c0.1-3.4,2.6-5.7,6.5-5.8c1.6-0.1,3.2-0.1,4.9,0  c4,0.1,6.7,2.6,6.6,6.1c-0.1,3.4-2.6,5.7-6.5,5.8C315,130.2,314.1,130.2,313.2,130.2z"></path>	<path class="st0" d="M343.1,130.1c-1.1,0-2.3,0.2-3.4,0c-3.2-0.5-5.1-2.5-5.3-5.8c-0.2-3.1,2.2-5.7,5.4-6c2-0.2,4-0.1,6-0.1  c3.9,0.1,6.4,2.4,6.5,5.8c0.1,3.5-2.5,6-6.6,6.1C344.8,130.2,343.9,130.2,343.1,130.1C343.1,130.2,343.1,130.1,343.1,130.1z"></path>	<path class="st0" d="M334.3,139.2c0,0.6,0,1.2,0,1.9c-0.1,4.4-2.4,7.1-6.1,7c-3.6-0.1-5.8-2.7-5.9-7.2c0-1.5-0.1-3,0-4.5  c0.2-3.8,2.6-6.3,6-6.3c3.4,0,5.7,2.6,5.9,6.4C334.4,137.5,334.3,138.4,334.3,139.2z"></path>	<path class="st0" d="M76.7,175.3c0,0.7,0,1.5,0,2.2c-0.2,4-2.7,6.6-6.2,6.5c-3.4-0.1-5.7-2.6-5.8-6.5c-0.1-1.6-0.1-3.2,0-4.9  c0.1-4,2.6-6.6,6.1-6.5c3.4,0.1,5.6,2.6,5.8,6.5C76.8,173.5,76.7,174.4,76.7,175.3z"></path>	<path class="st0" d="M55.7,196c-0.5,0-1,0-1.5,0c-4.7-0.1-7.4-2.3-7.4-6c0-3.7,2.7-5.9,7.5-6c1.4,0,2.7-0.1,4.1,0  c3.8,0.2,6.3,2.6,6.3,6c0,3.4-2.5,5.8-6.4,6C57.5,196.1,56.6,196,55.7,196z"></path>	<path class="st0" d="M85.7,184.1c0.4,0,0.7,0,1.1,0c5.1,0,7.8,2.2,7.8,6c0,3.8-2.8,6-7.8,6c-1.2,0-2.5,0-3.7,0  c-3.8-0.2-6.3-2.6-6.3-6c0-3.4,2.5-5.8,6.3-6C84,184,84.8,184.1,85.7,184.1z"></path>	<path class="st0" d="M76.7,205.4c0,1,0.1,2,0,3c-0.3,3.3-2.8,5.6-5.9,5.6c-3.1,0-5.7-2.3-6-5.6c-0.2-2.1-0.2-4.2,0-6.4  c0.2-3.6,2.6-6,5.9-6c3.3,0,5.7,2.4,6,5.9C76.8,203.1,76.7,204.2,76.7,205.4C76.7,205.4,76.7,205.4,76.7,205.4z"></path>	<path class="st0" d="M376.3,228.9c0-0.5,0-1,0-1.5c0.1-4.7,2.3-7.4,6-7.4c3.7,0,5.9,2.8,5.9,7.5c0,1.4,0.1,2.7,0,4.1  c-0.2,3.8-2.6,6.3-6,6.3c-3.4,0-5.7-2.6-5.9-6.4C376.2,230.7,376.3,229.8,376.3,228.9z"></path>	<path class="st0" d="M367.3,250c-0.4,0-0.7,0-1.1,0c-5.1,0-7.8-2.2-7.8-6c0-3.8,2.8-6,7.8-6c1.2,0,2.5,0,3.7,0  c3.8,0.2,6.3,2.6,6.3,6c0,3.4-2.5,5.8-6.3,6C369,250,368.1,249.9,367.3,250z"></path>	<path class="st0" d="M397.2,238c0.5,0,1,0,1.5,0c4.7,0.1,7.4,2.3,7.4,6c0,3.7-2.8,5.9-7.5,6c-1.4,0-2.7,0.1-4.1,0  c-3.8-0.2-6.3-2.6-6.3-6c0-3.4,2.5-5.8,6.4-5.9C395.5,237.9,396.4,238,397.2,238z"></path>	<path class="st0" d="M388.2,259.1c0,0.7,0,1.5,0,2.2c-0.2,4-2.6,6.7-6.1,6.6c-3.4-0.1-5.7-2.6-5.8-6.5c-0.1-1.6-0.1-3.2,0-4.9  c0.1-4,2.6-6.7,6.1-6.6c3.4,0.1,5.7,2.6,5.8,6.5C388.3,257.3,388.2,258.2,388.2,259.1z"></path>	<path class="st0" d="M136.6,348.8c0,0.5,0,1,0,1.5c-0.1,4.7-2.3,7.5-6,7.4c-3.7,0-5.9-2.8-6-7.5c0-1.4-0.1-2.7,0-4.1  c0.2-3.8,2.6-6.3,6-6.3c3.4,0,5.8,2.5,6,6.3C136.7,347,136.6,347.9,136.6,348.8z"></path>	<path class="st0" d="M115.7,369.7c-0.4,0-0.7,0-1.1,0c-5.1,0-7.8-2.2-7.8-6c0-3.8,2.8-6,7.8-6c1.2,0,2.5,0,3.7,0  c3.8,0.2,6.3,2.6,6.3,6c0,3.4-2.5,5.8-6.3,6C117.4,369.8,116.6,369.7,115.7,369.7z"></path>	<path class="st0" d="M145.7,357.8c0.5,0,1,0,1.5,0c4.7,0.1,7.4,2.3,7.4,6c0,3.7-2.8,5.9-7.5,6c-1.4,0-2.7,0.1-4.1,0  c-3.8-0.2-6.3-2.6-6.3-6c0-3.4,2.5-5.7,6.4-5.9C143.9,357.7,144.8,357.8,145.7,357.8z"></path>	<path class="st0" d="M136.6,378.8c0,0.7,0,1.5,0,2.2c-0.2,4-2.6,6.7-6.1,6.6c-3.4-0.1-5.7-2.6-5.8-6.5c-0.1-1.6-0.1-3.2,0-4.9  c0.1-4,2.6-6.7,6.1-6.6c3.4,0.1,5.7,2.6,5.9,6.5C136.7,377.1,136.6,378,136.6,378.8z"></path></g></svg>