<svg xmlns="http://www.w3.org/2000/svg" xmlns:xlink="http://www.w3.org/1999/xlink" id="Layer_1" x="0px" y="0px" viewBox="0 0 452 452" style="enable-background:new 0 0 452 452;" xml:space="preserve"><style type="text/css">	.st0{fill:#0061A6;}</style><g>	<path class="st0" d="M172.1,197.3c-6.3,0-12.1,0-18.5,0c-1.5,21-4.3,41.9-11.6,62.7c2.1-0.5,3.6-0.9,5.1-1.3  c6.9-1.7,13.7-3.5,20.7-5.1c3.8-0.9,6.7,0.8,7.5,4.2c0.9,3.4-0.9,6.2-4.6,7.3c-12.1,3.5-24.1,7.1-36.3,10.2  c-1.9,0.5-5.1-0.2-6.3-1.6c-1.3-1.5-1.8-4.8-1-6.7c5.9-16.2,10.5-32.7,12.5-49.9c1.5-12.9,2.4-25.8,4.2-38.7  c1.1-8,3.2-15.8,5.1-23.7c1.1-4.3,4.1-6.1,7.7-5c3.4,1,4.7,4.2,3.7,8.5c-2.1,8.7-4,17.4-6.1,26.7c2.4,0.2,3.9,0.5,5.5,0.5  c25.9,0.7,50.5-4.9,74.1-15.1c8.7-3.8,16.9-8.5,25.2-13c4.4-2.4,7.9-2.3,9.9,0.9c2.1,3.3,0.8,6.7-3.7,9.4  c-23.6,14.4-48.9,24-76.3,27.9c-3.7,0.5-5,1.9-4.8,5.6c0.5,17.5,3.8,34.2,15.1,48.3c14.9,18.6,38,18.8,53.3,0.4  c9-10.8,13.5-23.6,14.6-37.3c0.6-8.1-0.1-16.4-0.5-24.6c-0.1-3.6,1.7-6.6,5.1-7.2c3.1-0.5,6.2,1.5,6.7,5  c3.9,25.8,0.1,50.1-16.3,71.1c-16.2,20.7-42.6,24.5-62.4,9.6c-9.7-7.3-16.3-17.1-20.7-28.3c-4.6-11.6-6.6-23.7-6.8-36.2  C172.1,200.5,172.1,199.2,172.1,197.3z"></path>	<path class="st0" d="M222.3,64.3c29.2,0.5,52.9,8.3,74.5,22.6c8.6,5.7,8.5,5.8,5,15.6c-5.8,16-11.6,32.1-17.5,48.1  c-1.6,4.3-4.8,5.7-9.2,4c-32.7-12.6-65.4-12.6-98.1,0c-4.5,1.7-7.6,0.2-9.3-4.5c-6.2-17.1-12.4-34.2-18.7-51.2  c-1.9-5.1-1.3-7,3.2-10c16.2-10.8,33.5-19.2,52.9-22.6C211.7,65.1,218.6,64.7,222.3,64.3z M274.7,141.5c5.1-14,10-27.6,15.1-41.1  c1-2.5,0.5-3.7-1.8-5.1c-41.6-25.3-83-25.6-124.4,0.3c-2,1.3-2.2,2.4-1.4,4.5c4.9,12.9,9.6,25.9,14.3,38.9c0.3,0.8,0.7,1.5,1.1,2.3  C210,130.5,242.2,130.5,274.7,141.5z"></path>	<path class="st0" d="M279.5,314.3c-4.8-7-9.4-13.7-14.2-20.7c-0.8,1.5-1.4,2.7-1.9,3.9c-7.6,15.8-15.3,31.6-22.9,47.4  c-0.3,0.7-0.6,1.4-1,2c-1.9,3.5-5.3,4.7-8.4,3.1c-2.9-1.5-3.9-4.8-2.3-8.4c1.7-3.9,3.7-7.6,5.5-11.5c8.1-16.8,16.1-33.7,24.4-50.5  c0.9-1.8,3.4-3.9,5.2-3.9c2-0.1,5.1,1.5,6,3.2c3.2,6.2,7.8,8.6,14.6,9.5c9,1.1,18,3.1,26.6,5.8c21.4,6.7,35.8,26.1,37.1,48.5  c0.7,11.8,1.8,23.6,2.8,35.4c0.6,7.8-1,9.6-8.8,9.6c-9.9,0-19.7,0-29.6,0c-0.9,0-1.7,0-2.6,0c-4.1-0.2-6.7-2.5-6.7-6  c0-3.5,2.6-5.9,6.7-6c8.2-0.1,16.5,0,24.7,0c1.2,0,2.4,0,4.2,0c-0.8-10-1.3-19.5-2.4-29c-0.6-5.7-1.3-11.5-3.3-16.8  c-5.2-13.4-15.1-22-29.2-25.4c-6-1.4-12.1-2.7-18.7-3.3c2.7,3.9,5.3,7.9,8.1,11.8c3.9,5.6,2.4,9.6-4.1,11.2  c-5.3,1.3-10.6,2.7-15.9,4c-3.9,1-7.1-0.7-8-4.1c-0.9-3.3,1.1-6.4,5-7.5C273.1,315.9,276.1,315.1,279.5,314.3z"></path>	<path class="st0" d="M186.7,293.6c-4.8,6.9-9.3,13.6-14.2,20.6c3.4,0.9,6.4,1.6,9.4,2.4c3.9,1.1,5.9,4.2,5,7.5  c-0.9,3.4-4.1,5.1-8,4.1c-5.8-1.4-11.6-2.8-17.4-4.3c-4.6-1.2-6.2-5.9-3.4-10c2.9-4.2,5.8-8.4,9.4-13.5c-4,0.7-7.1,1.3-10.2,1.9  c-9.1,1.9-18.1,3.9-25.5,10c-8.6,7.1-14.2,16.1-15.4,27.3c-1.3,11.8-2.2,23.6-3.3,35.9c1.7,0.1,2.9,0.2,4,0.2c8.2,0,16.5,0,24.7,0  c4.4,0,7,2.4,7,6.1c-0.1,3.5-2.7,5.9-6.8,5.9c-11.2,0.1-22.5,0-33.7,0c-5.5,0-7.7-2.3-7.3-7.9c0.9-12.3,2-24.6,2.9-36.9  c0.7-10.5,3.8-20,9.8-28.6c9.3-13.4,22.6-20.3,38.3-23.1c7.2-1.3,14.5-2.5,21.7-4c1.7-0.4,3.5-1.6,4.7-3c1.5-1.6,2.5-3.7,3.8-5.5  c3.3-4.8,8.7-4.4,11.2,0.8c9.4,19.4,18.7,38.8,28,58.3c0.6,1.2,1.2,2.5,1.8,3.7c1.6,3.8,0.7,7.2-2.5,8.6c-3.2,1.5-6.5,0.2-8.3-3.5  c-3.3-6.7-6.5-13.5-9.8-20.2c-4.8-9.9-9.5-19.8-14.3-29.6C188,295.9,187.4,294.9,186.7,293.6z"></path>	<path class="st0" d="M310.2,260.1c-9.2-24.8-10.2-50-13.1-75c-1-9-3.3-17.8-5.3-26.7c-1-4.4,0-7.5,3.4-8.7c3.7-1.2,6.6,0.7,8.1,5.1  c4.6,14.3,6.2,29.2,7.4,44.1c1.7,23.2,5.9,45.9,14.4,67.7c1,2.6,1.1,5.1-1,7.3c-2.1,2.2-4.5,2.1-7.2,1.3  c-11.2-3.3-22.5-6.5-33.7-9.7c-0.6-0.2-1.2-0.3-1.8-0.5c-3.7-1.1-5.4-4-4.5-7.4c0.9-3.2,3.6-5,7.2-4.2c7.2,1.7,14.3,3.5,21.4,5.3  C306.6,259.1,307.9,259.5,310.2,260.1z"></path>	<path class="st0" d="M232.2,121.1c-4.4,0-8.1,0-12,0c0-3.8,0-7.5,0-11.6c-4,0-7.8,0-11.9,0c0-4.2,0-8,0-12c3.7,0,7.4,0,11.5,0  c0-4,0-7.8,0-11.9c4.2,0,8,0,12,0c0,3.7,0,7.4,0,11.5c4,0,7.8,0,11.9,0c0,4.2,0,8,0,12c-3.7,0-7.4,0-11.5,0  C232.2,113.1,232.2,116.9,232.2,121.1z"></path></g></svg>