<svg xmlns="http://www.w3.org/2000/svg" xmlns:xlink="http://www.w3.org/1999/xlink" id="Layer_1" x="0px" y="0px" viewBox="0 0 452 452" style="enable-background:new 0 0 452 452;" xml:space="preserve"><style type="text/css">	.st0{fill:#0061A6;}</style><g>	<path class="st0" d="M219.8,297.9c0-6.2,0-11.9,0-18c-5.5,0-10.8,0-16.2,0c-5.6,0-7.6-2.1-7.6-7.7c0-2.7,0-5.5,0-8.2  c-7.4-3-14.6-6-22.9-9.4c-1.7,1.9-3.7,4.4-6,6.6c-3.2,3.1-6.3,3.1-9.5,0c-11-10.9-21.9-21.8-32.8-32.8c-3.2-3.2-3.1-6.2,0.1-9.5  c1.1-1.2,2.3-2.3,3.4-3.4c1.1-1,2.2-2,3-2.7c-2.9-7.4-5.5-14.2-8.4-20.9c-0.3-0.8-1.8-1.6-2.7-1.7c-2.6-0.2-5.2,0-7.9-0.2  c-3.8-0.2-6.1-2.4-6.2-6.1c-0.1-15.8-0.1-31.7,0-47.5c0-3.9,2.4-6.1,6.5-6.2c3.2-0.1,6.5,0,9.4,0c3.1-7.6,6.1-14.8,9.5-23  c-1.9-1.7-4.4-3.6-6.6-5.8c-3.2-3.3-3.3-6.3-0.1-9.5c11-11.1,22-22.1,33.1-33.1c3-3,6.1-2.9,9.2,0.1c2.2,2.2,4.3,4.5,6.3,6.6  c7.7-3.2,15-6.3,22.6-9.5c0-3-0.1-6.2,0-9.5c0.1-4,2.3-6.3,6.3-6.3c15.7-0.1,31.4-0.1,47.2,0c4,0,6.2,2.3,6.4,6.3  c0.1,3.2,0,6.5,0,9.5c7.5,3.1,14.7,6,23.1,9.5c1.6-1.9,3.6-4.5,5.9-6.7c3-3,6.2-3.1,9.2-0.1c11.1,11,22.1,22,33.1,33.1  c3.2,3.2,3,6.2-0.2,9.5c-2.2,2.2-4.6,4.2-6.5,6c3.3,7.9,6.3,15.1,9.5,22.7c2.7,0,5.9-0.1,9,0c4.5,0.1,6.8,2.3,6.8,6.6  c0.1,15.6,0.1,31.2,0,46.8c0,4.2-2.4,6.3-6.6,6.5c-3.2,0.1-7.2-0.9-9.4,0.7c-2.1,1.4-2.2,5.6-3.4,8.4c-1.5,3.6-3,7.1-4.8,10.5  c-0.9,1.7-0.9,2.8,0.6,4.2c1.9,1.6,3.6,3.5,5.3,5.3c2.7,2.9,2.9,5.9,0.2,8.7c-11.2,11.4-22.5,22.7-33.9,33.9  c-2.7,2.7-5.8,2.4-8.7-0.3c-1.2-1.1-2.3-2.2-3.4-3.4c-1.1-1.2-2.1-2.5-2.8-3.3c-7.5,3-14.3,5.6-21.1,8.4c-0.8,0.3-1.6,1.5-1.7,2.4  c-0.2,2.3-0.1,4.7-0.1,7.1c-0.1,5.2-2.2,7.3-7.3,7.3c-5.4,0-10.7,0-16.4,0c0,5.9,0,11.7,0,17.8c1.1,0.1,2.3,0.2,3.5,0.2  c8.4,0,16.7,0,25.1,0c4.7,0,7.1,2.2,7.1,6.8c0,23.5,0,46.9,0,70.4c0,4.4-2.3,6.7-6.7,6.7c-23.5,0-46.9,0-70.4,0  c-4.4,0-6.7-2.3-6.7-6.7c0-23.5,0-46.9,0-70.4c0-4.6,2.3-6.7,7.1-6.7C200.6,297.9,210.1,297.9,219.8,297.9z M314.3,223.2  c-0.7-0.7-1.6-1.7-2.5-2.7c-3.7-4.2-4.4-8.7-2.1-13.8c2.9-6.7,5.7-13.5,8.4-20.3c2.1-5.2,6-8.1,11.7-8.2c1.2,0,2.4,0,4,0  c0-6.2,0-12,0-17.9c0-5.9,0-11.9,0-17.8c-12.5-1.2-13.2-1.9-17.4-13.7c-1.4-3.9-3-7.7-4.8-11.3c-4.9-9.9-4.6-12.2,2.6-20.3  c0.1-0.2,0.1-0.4,0.3-1.2c-4-3.9-8.2-8-12.3-12.1c-4.2-4.2-8.4-8.4-12.5-12.6c-9.1,7.9-11,8.1-21.4,3c-3.9-1.9-8-3.5-12.1-5  c-10.4-3.6-11.7-5.2-12.4-16.3c0-0.2-0.3-0.4-0.3-0.5c-11.8,0-23.6,0-35.5,0c0,1.4,0,2.5,0,3.7c-0.2,5.8-3,9.6-8.2,11.7  c-6.8,2.7-13.6,5.5-20.3,8.4c-5.3,2.3-9.9,1.5-14.1-2.4c-0.9-0.8-1.8-1.7-2.5-2.4c-8.5,8.5-16.8,16.8-25.2,25.3  c0.7,0.8,1.7,1.8,2.6,2.8c3.7,4.2,4.3,8.7,2.1,13.8c-2.9,6.7-5.7,13.5-8.4,20.3c-2.1,5.2-6,8-11.7,8.2c-1.2,0-2.4,0-3.7,0  c0,12.2,0,23.9,0,35.8c0.8,0.1,1.4,0.1,2,0.1c8.3,0.2,11.5,2.7,14.2,10.5c1.7,4.8,3.5,9.6,5.7,14.2c4.8,9.9,4.6,12.2-2.6,20.3  c-0.1,0.2-0.1,0.4,0-0.3c8.6,8.8,16.9,17.1,25.1,25.5c8.5-7.4,10.4-7.5,20.7-2.4c4,2,8.2,3.8,12.5,5c9.4,2.7,12.6,7.6,12,15.9  c0,0.3,0.3,0.6,0.4,1c11.8,0,23.4,0,35.5,0c0-1.5,0-2.8,0-4.2c0.2-5.4,2.9-9.1,7.9-11.2c7-2.9,14-5.7,21-8.7  c4.9-2.1,9.2-1.4,13.2,2c1.1,1,2.2,2,3,2.7C297.5,240.1,305.7,231.8,314.3,223.2z M255.7,369.6c0-20,0-39.8,0-59.4  c-20,0-39.8,0-59.4,0c0,20,0,39.6,0,59.4C216.1,369.6,235.8,369.6,255.7,369.6z"></path>	<path class="st0" d="M93.6,285.9c11.8,0,23.2,0.1,34.5,0c3.1,0,5.5,0.9,7.6,3.1c4.3,4.5,9.2,8.5,13.1,13.3c4.9,6,10.6,8.9,18.4,7.6  c1.4-0.2,2.9,0,4.6,0c0,4,0,7.7,0,11.8c-6.3,0-12.7,0.2-19.1-0.1c-1.4-0.1-2.8-1.5-3.9-2.6c-6.4-6.3-12.7-12.7-19.2-18.9  c-1.2-1.1-3.2-2-4.8-2c-9.4-0.2-18.7,0-28.1-0.2c-2.5,0-3.6,0.8-4.6,3.1c-4.7,11.6-17,17.4-28.8,13.9  c-11.3-3.3-18.7-14.9-16.9-26.3c2-12.5,12.5-21.3,25-20.5c9.5,0.6,16.3,5.5,20.5,14.1C92.6,283.3,93,284.6,93.6,285.9z M70.2,303.9  c6.5,0,12-5.3,12-11.8c0.1-6.5-5.2-12-11.7-12.1c-6.7-0.1-12.2,5.3-12.2,12C58.3,298.4,63.7,303.8,70.2,303.9z"></path>	<path class="st0" d="M171.9,357.8c0,4,0,7.7,0,12c-3.8,0-7.6,0.1-11.4,0c-2.7-0.1-4.6,0.6-6.5,2.6c-5.9,6.1-12,12-17.9,18.1  c-2.4,2.4-4.9,3.4-8.3,3.4c-11.1-0.1-22.2,0-33.3,0c-0.2,0-0.5,0.1-0.9,0.2c-0.5,1.1-1,2.4-1.6,3.6c-4.7,10.4-15.8,16-26.8,13.5  c-11.1-2.4-18.9-12.1-18.9-23.4c0-11.4,8-21,19.3-23.4c10.8-2.3,22,3.4,26.3,13.8c1.3,3.2,2.9,3.8,6,3.8c8.7-0.2,17.5-0.2,26.2,0  c2.6,0,4.4-0.8,6.2-2.6c6.1-6.3,12.2-12.5,18.6-18.5c1.7-1.6,4.5-2.6,6.9-2.8C161,357.5,166.4,357.8,171.9,357.8z M82.2,387.6  c-0.1-6.5-5.5-11.8-12-11.8c-6.5,0-11.9,5.4-11.9,11.9c0,6.7,5.6,12.1,12.2,12C77,399.6,82.3,394.1,82.2,387.6z"></path>	<path class="st0" d="M280,321.9c0-4.2,0-7.8,0-12c2.3,0,4.5-0.3,6.6,0.1c6.4,1,11-1.4,15.2-6.3c4.4-5.2,9.7-9.7,14.4-14.7  c2.2-2.2,4.5-3.2,7.6-3.1c11.2,0.1,22.5,0,33.7,0c0.2,0,0.5-0.1,0.9-0.2c0.5-1.1,1-2.4,1.6-3.6c4.7-10.4,15.8-16,26.8-13.6  c11.1,2.4,18.9,12.1,18.9,23.4c0,11.4-8,21-19.3,23.4c-10.8,2.3-22-3.3-26.3-13.7c-1.3-3.1-2.9-3.9-6-3.8  c-8.9,0.2-17.7-0.1-26.6,0.2c-1.8,0-4.1,1-5.4,2.3c-6.3,6-12.5,12.2-18.6,18.5c-2.2,2.2-4.5,3.2-7.6,3.1  C290.7,321.7,285.5,321.9,280,321.9z M393.7,292.1c0.1-6.5-5.2-12-11.7-12.1c-6.5-0.1-12,5.1-12.2,11.6  c-0.2,6.7,5.2,12.3,11.9,12.3C388.2,303.9,393.6,298.6,393.7,292.1z"></path>	<path class="st0" d="M280.2,357.8c6,0,11.9-0.2,17.7,0.1c1.9,0.1,3.9,1.5,5.4,2.9c6.4,6.1,12.5,12.6,18.9,18.6  c1.3,1.3,3.6,2.1,5.5,2.2c9.1,0.2,18.2,0,27.3,0.2c2.6,0,3.8-0.7,4.9-3.2c4.6-11.4,16.8-17.2,28.5-13.9c11.4,3.2,19,15.1,17.1,26.5  c-2.1,12.3-12.4,21.1-24.7,20.4c-10-0.5-17.1-5.7-21-14.9c-1-2.4-2.2-3.1-4.6-3c-10.2,0.1-20.5-0.1-30.7,0.1  c-3.7,0.1-6.4-1.1-8.9-3.8c-5.9-6.1-11.9-12.1-18-17.9c-1.3-1.3-3.6-2-5.5-2.2c-3.8-0.3-7.7-0.1-11.9-0.1  C280.2,365.9,280.2,362.1,280.2,357.8z M393.7,387.9c0.1-6.5-5.2-12-11.7-12.1c-6.5-0.1-12,5.1-12.2,11.6  c-0.2,6.7,5.3,12.3,11.9,12.3C388.2,399.7,393.6,394.4,393.7,387.9z"></path>	<path class="st0" d="M172,333.8c0,4.2,0,7.8,0,12c-1.5,0-2.9,0-4.4,0c-9.5,0-19,0.1-28.4-0.1c-2.7,0-4.1,0.6-5.2,3.3  c-4.7,11.4-16.9,17.2-28.5,13.8c-11.4-3.3-19-15.1-17-26.6c2.1-12.3,12.5-21,24.8-20.3c9.8,0.5,16.9,5.6,20.8,14.6  c1.1,2.7,2.5,3.4,5.2,3.3C150,333.7,160.9,333.8,172,333.8z M124.2,339.9c0-6.5-5.3-11.9-11.8-12c-6.5-0.1-12,5.2-12.1,11.7  c-0.1,6.7,5.3,12.2,12,12.2C118.7,351.8,124.1,346.4,124.2,339.9z"></path>	<path class="st0" d="M316.4,345.8c-12,0-24,0-36.2,0c0-3.9,0-7.7,0-12c4.8,0,9.6,0,14.4,0c6.1,0,12.2-0.1,18.3,0  c2.5,0.1,3.9-0.4,4.9-3.1c4.6-11.6,17-17.4,28.8-13.9c11.2,3.3,18.7,15,16.9,26.3c-2,12.5-12.5,21.2-25,20.6  C328.7,363.3,321.6,357.7,316.4,345.8z M339.8,327.9c-6.5,0-11.9,5.3-12,11.9c-0.1,6.5,5.3,12,11.8,12.1c6.6,0.1,12.2-5.4,12.2-12  C351.7,333.3,346.3,327.9,339.8,327.9z"></path>	<path class="st0" d="M303.9,160.2c0,42.9-35,77.8-77.9,77.8c-42.9,0-77.8-35-77.8-77.9c0-42.9,35-77.8,77.9-77.8  C268.9,82.3,303.9,117.3,303.9,160.2z M250,221.1c24.3-8.5,46.9-36.9,41-72c-5.5-33.1-35.3-56.6-69.1-54.7  c-32.8,1.8-59.9,29-61.7,61.8c-1.5,28.4,19.4,60.9,41.8,64.7c0-2.1-0.3-4.3,0.1-6.4c1-6.4-0.9-10.6-7.5-12.5  c-3.4-1-4.6-3.8-4.5-7.3c0.1-7.5-0.1-15,0.1-22.5c0.2-11.1,5.1-19.6,14.4-25.5c0.9-0.6,1.8-1.2,2.6-1.7  c-7.6-11.9-6.4-24.1,2.8-32.5c8.7-7.9,21.6-8.3,30.9-1c10.1,7.9,11.6,20.1,4.2,33.5c0.1,0.1,0.1,0.2,0.2,0.3  c0.9,0.6,1.9,1.2,2.8,1.8c8.8,5.9,13.5,14.2,13.8,24.8c0.2,5.5,0.1,11,0,16.5c-0.1,12.2,1.3,11-9.8,16.5c-1,0.5-2.1,1.9-2.1,2.9  C249.8,212,250,216.4,250,221.1z M238,225.3c0-5.5,0-10.3,0-15.2c0.1-12.6-1.4-11.2,9.8-16.8c1-0.5,2-2.2,2.1-3.3  c0.2-6.1,0.2-12.2,0.1-18.3c-0.2-9.8-7.9-17.3-17.8-17.5c-4.1-0.1-8.2-0.1-12.3,0c-10,0.2-17.6,7.9-17.8,18  c-0.1,4.5,0.4,9-0.1,13.4c-0.6,5.3,1.2,8.4,6.3,9.9c4.6,1.4,6.2,4.7,5.9,9.5c-0.3,6.5-0.1,13.1-0.1,20.4  C222.2,225.3,229.9,225.3,238,225.3z M225.4,142.2c6.5,0.3,12.2-4.8,12.5-11.3c0.3-6.5-4.8-12.2-11.2-12.6  c-6.7-0.4-12.5,4.8-12.7,11.5C213.8,136.2,219,141.9,225.4,142.2z"></path>	<path class="st0" d="M226,357.8c-3.9,0-7.7,0.1-11.6,0c-4-0.1-6.3-2.4-6.3-6.4c-0.1-7.7-0.1-15.5,0-23.2c0.1-4,2.4-6.3,6.3-6.3  c7.7-0.1,15.5-0.1,23.2,0c4,0.1,6.3,2.4,6.3,6.3c0.1,7.7,0.1,15.5,0,23.2c-0.1,4-2.4,6.2-6.4,6.3  C233.7,357.9,229.8,357.8,226,357.8z M231.7,345.7c0-4.1,0-7.9,0-11.5c-4.1,0-7.8,0-11.5,0c0,4,0,7.7,0,11.5  C224.1,345.7,227.8,345.7,231.7,345.7z"></path></g></svg>