<svg xmlns="http://www.w3.org/2000/svg" xmlns:xlink="http://www.w3.org/1999/xlink" id="Layer_1" x="0px" y="0px" viewBox="0 0 452 452" style="enable-background:new 0 0 452 452;" xml:space="preserve"><style type="text/css">	.st0{fill:#0061A6;}</style><g>	<path class="st0" d="M383.3,257.8c4.3,0,5.2,2.5,5,6c-0.1,4.1,0,8.2,0,12.3c0,12-6.3,18.3-18.2,18.3c-39.8,0-79.6,0-119.4,0  c-1.6,0-3.2,0-5.1,0c0,12.2,0,24.1,0,36c0.2,0.1,0.4,0.3,0.6,0.4c10.2,0.7,13.4,4.1,13.4,14.3c0,4.5,0,9,0,14c2.6,0,4.9,0,7.2,0  c14.6,0.1,23.2,8.5,23.5,23.2c0,0.7,0.1,1.5,0.2,2.8c1.7,0,3.2,0,4.8,0c31.4,0,62.9,0,94.3,0c1.1,0,2.5-0.4,3.3,0.1  c1.4,0.8,3.3,2,3.6,3.3c0.5,2.4-1.5,3.4-3.8,3.6c-1,0.1-2,0-3,0c-100.4,0-200.8,0-301.3,0c-1.4,0-3,0.3-4-0.2  c-1.2-0.7-2.7-2.2-2.7-3.3c0-1.1,1.6-2.5,2.8-3.2c1-0.5,2.4-0.2,3.7-0.2c21.8,0,43.7,0,65.5,0c1.5,0,3,0,4.9,0  c-0.4-8.7,1.6-16.2,8.7-21.7c6.9-5.4,15.1-3.9,23.4-4.4c0-4.7,0-9.1,0-13.5c0-10.4,2.3-13.1,13-14.8c0-10.8,0-21.6,0-32.4  c0-1.1-0.1-2.2-0.2-3.7c-1.8,0-3.4,0-5,0c-39.5,0-79.1,0-118.6,0c-9.2,0-15.8-4.1-17-12c-1.1-7.1-0.7-14.4-0.5-21.6  c0-1.3,2.5-2.5,3.8-3.7c0.3,0.1,0.6,0.3,0.9,0.4c0-4.6,0-9.2,0-13.8c0.1-11.5,7-18.5,18.4-18.5c93.2,0,186.4,0,279.5,0  c11.3,0,18.3,7.1,18.3,18.5C383.3,248.3,383.3,252.8,383.3,257.8z M381,265.1c-104.2,0-208,0-312.1,0c0,3.4,0,6.6,0,9.9  c0,9.6,2.8,12.5,12.5,12.5c95.8,0,191.6,0,287.4,0c1.5,0,3,0.1,4.5-0.1c4-0.5,7.4-3.5,7.6-7.5C381.3,275,381,270.1,381,265.1z   M177.3,257.7c32,0,63.8,0,95.6,0c0-8.6,0-16.9,0-25.3c-32,0-63.7,0-95.6,0C177.3,240.9,177.3,249.2,177.3,257.7z M376.4,257.7  c0-4.4,0-8.4,0-12.4c0-9.6-3.4-13.2-13-13.2c-26.3,0-52.6,0-78.9,0c-1.3,0-2.7,0.1-4.1,0.2c0,8.6,0,16.9,0,25.4  C312.4,257.7,344.1,257.7,376.4,257.7z M169.9,232.3c-1.1-0.1-1.9-0.2-2.6-0.2c-27.2,0-54.3,0-81.5,0c-1.5,0-3,0.1-4.4,0.5  c-3.8,1.1-6.7,3.5-7.1,7.4c-0.5,5.8-0.1,11.6-0.1,17.5c32.1,0,63.8,0,95.9,0c0-7.5,0-14.8,0-22C170,234.7,169.9,233.7,169.9,232.3z   M282.9,384.8c1.7-11.3-4.5-18.8-15.3-18.8c-28.9,0-57.8,0-86.7,0c-10.3,0-16.9,8.5-14.6,18.8C205,384.8,243.8,384.8,282.9,384.8z   M197.7,358.8c18.4,0,36.4,0,54.8,0c0-6,0.2-11.9-0.2-17.7c-0.1-1.2-2.7-3-4.2-3.1c-15.3-0.2-30.6-0.1-46-0.1  c-2.9,0-4.4,1.4-4.4,4.3C197.7,347.6,197.7,353,197.7,358.8z M238,330.7c0-12.2,0-24,0-36c-9.1,0-17.9,0-26.9,0c0,12.1,0,24,0,36  C220.1,330.7,228.9,330.7,238,330.7z"></path>	<path class="st0" d="M214.2,93.9c0-8.9,0-17.9,0-27c0-6.5,0.5-7,7-7c5.9,0,11.7,0,17.6,0c3.3,0,4.8,1.4,4.8,4.7  c-0.1,8.9,0.1,17.7-0.1,26.6c0,2.5,0.7,3.5,3.3,3.8c8.3,1.1,16.4,3.3,23.7,7.5c6.9,4,10.9,9.5,10.3,18c-0.5,7.2-0.3,14.5,0,21.7  c0.2,5.8-2.2,10.1-6.5,13.6c-6.4,5.1-14,7.7-21.8,9.2c-20.2,3.9-40.2,3.7-59.6-4c-3.4-1.4-6.7-3.4-9.6-5.6c-4.1-3.1-6.1-7.2-6-12.6  c0.3-8.1,0.2-16.2,0-24.3c-0.2-5.8,2.3-10.1,6.7-13.4c7.9-6,17.2-8.3,26.7-9.9c0.9-0.1,1.7-0.3,2.6-0.4  C213.4,94.5,213.6,94.3,214.2,93.9z M273.7,131.5c0-2.5,0-5.2,0-7.9c0-11-1.5-13.2-11.9-17.4c-1.4-0.6-2.8-1.1-4.2-1.5  c-15.6-4.7-31.4-5.4-47.3-2.3c-6.9,1.3-13.5,4-20,6.8c-2.5,1.1-5.4,3.9-5.7,6.3c-0.9,5.4-0.3,11-0.3,15.9  C214.1,117.9,243.5,117.8,273.7,131.5z M229.2,128c-6.8,0.7-13.7,1-20.4,2.4c-6.3,1.3-12.6,3.3-18.3,6.1  c-8.7,4.4-8.6,10.5-0.2,15.4c3.2,1.9,6.7,3.4,10.2,4.4c18.2,5.4,36.6,5.4,55,0.5c4.6-1.2,9.2-3.3,13.2-5.9c6.6-4.1,6.4-9,0-13.4  c-2.2-1.5-4.7-2.8-7.2-3.8C251.2,129.6,240.3,128.4,229.2,128z M236.3,93.5c0-8.9,0-17.6,0-26.3c-5.1,0-9.9,0-14.8,0  c0,8.9,0,17.5,0,26.3C226.6,93.5,231.4,93.5,236.3,93.5z"></path>	<path class="st0" d="M65.5,385c2,0,4.1-0.5,5.9,0.1c1.4,0.5,3.1,2.1,3.3,3.5c0.2,0.9-1.9,3.1-3.1,3.2c-4.2,0.4-8.5,0.4-12.6,0  c-1.3-0.1-2.4-2.2-3.5-3.4c1.2-1.1,2.3-2.8,3.8-3.2C61.1,384.6,63.4,385,65.5,385C65.5,385,65.5,385,65.5,385z"></path>	<path class="st0" d="M223.8,130.9c4.7,0,8.2,2.2,8.3,5.2c0.1,3.2-3.5,5.5-8.4,5.4c-4.4-0.1-7.9-2.4-8-5.2  C215.6,133.4,219.3,130.9,223.8,130.9z"></path>	<path class="st0" d="M205.2,152.5c-4.4,0-8.3-2.6-8.2-5.5c0-2.9,3.9-5.4,8.3-5.4c4.6,0,8.2,2.4,8.2,5.5  C213.4,150.1,209.7,152.5,205.2,152.5z"></path>	<path class="st0" d="M252.7,134.5c4.7,0,8.2,2.4,8,5.5c-0.1,2.9-3.5,5.1-8,5.2c-4.8,0.1-8.6-2.5-8.5-5.5  C244.4,136.7,248.1,134.5,252.7,134.5z"></path>	<path class="st0" d="M235.5,147.1c4.5,0.1,7.9,2.3,8,5.1c0.1,3-3.4,5.5-8,5.6c-4.7,0.1-8.6-2.5-8.5-5.5  C227.2,149.4,231,147.1,235.5,147.1z"></path></g></svg>